<?xml version="1.0" standalone="no"?>
<!DOCTYPE svg PUBLIC "-//W3C//DTD SVG 20010904//EN"
 "http://www.w3.org/TR/2001/REC-SVG-20010904/DTD/svg10.dtd">
<svg version="1.0" xmlns="http://www.w3.org/2000/svg"
 width="1000.000000pt" height="1000.000000pt" viewBox="0 0 1000.000000 1000.000000"
 preserveAspectRatio="xMidYMid meet">
<metadata>
Created by potrace 1.11, written by Peter Selinger 2001-2013
</metadata>
<g transform="translate(0.000000,1000.000000) scale(0.100000,-0.100000)"
fill="#000000" stroke="none">
<path d="M0 5000 l0 -5000 5000 0 5000 0 0 5000 0 5000 -5000 0 -5000 0 0
-5000z m5488 3976 c469 -63 876 -184 1277 -381 1147 -564 1965 -1653 2179
-2905 45 -263 51 -339 51 -690 0 -351 -6 -427 -51 -690 -72 -421 -224 -856
-430 -1233 -20 -37 -35 -69 -33 -70 2 -2 180 -99 394 -216 215 -118 394 -217
399 -221 17 -17 -186 -342 -354 -565 -324 -432 -730 -811 -1185 -1107 -126
-82 -286 -178 -298 -178 -3 0 -103 179 -223 397 -120 219 -219 400 -220 401
-1 2 -62 -28 -136 -66 -426 -225 -904 -371 -1418 -434 -142 -18 -738 -18 -880
0 -539 66 -1034 223 -1483 468 -37 20 -69 35 -71 33 -1 -2 -100 -183 -220
-402 -120 -218 -220 -397 -223 -397 -12 0 -172 96 -298 178 -545 355 -1012
822 -1367 1367 -82 125 -178 286 -178 297 0 3 179 104 398 224 218 119 399
219 401 221 2 1 -10 29 -28 60 -202 362 -363 821 -435 1243 -45 263 -51 339
-51 690 0 351 6 427 51 690 146 852 583 1658 1216 2242 639 589 1457 964 2283
1047 61 6 124 13 140 15 82 11 677 -2 793 -18z"/>
<path d="M4765 8893 c-472 -38 -836 -120 -1220 -275 -261 -105 -460 -211 -705
-373 -218 -145 -398 -292 -596 -490 -565 -564 -934 -1264 -1078 -2045 -48
-263 -60 -404 -60 -710 0 -212 4 -322 17 -430 61 -495 180 -894 395 -1322 l94
-188 31 17 c36 18 515 280 593 324 l52 29 32 -57 c229 -406 647 -824 1053
-1052 31 -18 55 -36 53 -39 -23 -41 -337 -615 -349 -638 l-16 -31 167 -86
c528 -269 1071 -406 1672 -424 655 -19 1291 126 1882 429 l157 81 -16 31 c-12
23 -326 597 -349 638 -2 3 22 21 53 39 407 229 823 645 1052 1052 18 31 36 55
39 53 26 -14 613 -336 638 -349 l31 -16 86 167 c216 425 342 844 404 1342 13
108 17 218 17 430 0 306 -12 447 -60 710 -78 424 -230 841 -442 1215 -81 143
-247 387 -358 525 -140 175 -413 447 -584 584 -638 509 -1356 792 -2174 856
-118 9 -415 11 -511 3z m401 -1603 c724 -58 1349 -421 1746 -1014 144 -215
250 -452 314 -701 54 -212 68 -332 68 -575 0 -242 -13 -356 -68 -574 -164
-649 -613 -1197 -1221 -1492 -227 -110 -426 -172 -675 -211 -159 -24 -500 -24
-660 0 -761 117 -1399 584 -1735 1269 -163 332 -229 624 -229 1008 0 384 66
677 229 1008 265 539 707 938 1269 1147 306 113 641 160 962 135z"/>
</g>
</svg>
